<svg width="102" height="100" viewBox="0 0 102 100" fill="none" xmlns="http://www.w3.org/2000/svg">
<g opacity="0.5" clip-path="url(#clip0_563_316)">
<path d="M96.2397 13.443L91.881 9.68016L96.2397 5.91811C96.9175 5.33217 97.1494 4.41894 96.8311 3.59039C96.5113 2.76107 95.7214 2.22549 94.8179 2.22549H76.7809V1.4656C76.7809 0.656127 76.1116 0 75.2859 0C74.4603 0 73.791 0.656127 73.791 1.4656V21.2318L61.5134 27.7679C61.4457 27.2384 61.2838 26.7181 61.0278 26.2283L59.2979 22.9171C58.1104 20.6436 55.2575 19.7425 52.94 20.906L51.6023 21.5774C50.4786 22.142 49.6467 23.1002 49.2591 24.2782C48.8716 25.4554 48.9751 26.7105 49.551 27.8114L51.2809 31.1233C51.6848 31.8961 52.2817 32.508 52.9836 32.9368C52.0653 34.1491 51.6295 35.6399 51.1813 37.1886L50.8591 38.3071C50.6342 39.0861 51.0965 39.8963 51.891 40.116C52.0264 40.1542 52.1634 40.1717 52.298 40.1717C52.9501 40.1717 53.5493 39.7506 53.7361 39.1044L54.0583 37.9882C54.7135 35.723 55.1159 34.51 56.3968 33.8279L58.6932 32.6049L58.9765 32.463C59.0707 32.4157 59.1586 32.3623 59.2481 32.3097L75.6151 23.5961C75.5116 25.6019 74.4105 27.497 72.5973 28.5766L61.9539 34.9166C61.9414 34.9235 61.929 34.9304 61.9173 34.938L58.6045 36.9109C57.8995 37.3313 57.6746 38.2331 58.1034 38.9251C58.5072 39.5774 59.3477 39.8093 60.0333 39.482L57.5197 46.9314L55.6824 47.6699L50.6864 49.6772L52.126 44.6876C52.3501 43.9086 51.8887 43.0984 51.0941 42.8779C50.2988 42.6566 49.4731 43.1106 49.2483 43.8895L46.9736 51.776C46.944 51.8775 46.9246 51.9889 46.9199 52.0949L46.3246 62.8157C46.3067 63.2247 46.3954 63.9975 46.2024 64.3965L39.5908 78.0333H34.7862C31.9715 78.0333 29.6821 80.2779 29.6821 83.0366V87.2671C29.0377 86.978 28.3225 86.8162 27.5685 86.8162H15.3671C12.5532 86.8162 10.2637 89.06 10.2637 91.8196V97.0686H6.67466C5.849 97.0686 5.17975 97.7247 5.17975 98.5342C5.17975 99.3437 5.849 99.9998 6.67466 99.9998H94.8163C95.642 99.9998 96.3113 99.3437 96.3113 98.5342C96.3113 97.7247 95.642 97.0686 94.8163 97.0686H90.9285V59.2917C90.9285 56.5329 88.639 54.2884 85.8251 54.2884H76.7809V28.72C78.4384 26.5174 79.0524 23.6305 78.2828 20.887C78.1621 20.4559 77.847 20.1019 77.4268 19.9272C77.2205 19.841 76.9995 19.8028 76.7809 19.8112V17.1356H94.8171C95.7214 17.1356 96.5113 16.6 96.8303 15.7715C97.1494 14.9429 96.9175 14.0289 96.2397 13.443ZM52.105 25.1785C52.2474 24.7459 52.5525 24.3934 52.9649 24.1867L54.3026 23.5153C54.5548 23.3886 54.824 23.3284 55.0902 23.3284C55.7205 23.3284 56.3298 23.6663 56.6365 24.253L58.3672 27.5649C58.771 28.3386 58.5096 29.2762 57.7913 29.75L57.3041 30.0086L56.2761 30.5251C55.4256 30.9524 54.3781 30.6213 53.9423 29.7866L52.2116 26.4755C52.0007 26.0711 51.9626 25.6103 52.105 25.1785ZM49.1012 78.4842C48.593 78.2568 48.0405 78.1081 47.46 78.0554L49.1012 75.9184V78.4842ZM56.1991 66.6747C56.9182 65.8301 57.1166 64.8436 57.2769 64.0486C57.3174 63.8594 58.0551 59.9089 58.0551 59.9089C58.0551 59.9089 58.7531 60.3354 58.8263 60.3659C58.8769 60.3881 58.9127 60.4369 58.9181 60.4941L59.7313 68.5988H54.7213L56.1991 66.6747ZM65.0394 58.5852L63.7772 68.5919H62.7352L61.8939 60.2073C61.7866 59.133 61.1158 58.1954 60.1329 57.7292L58.6294 56.7946L59.631 51.3526C59.631 51.3526 63.8503 56.2667 63.9484 56.3918C64.8215 57.5049 65.1203 57.9505 65.0394 58.5852ZM48.8918 65.6783C49.1938 64.7872 49.3339 63.88 49.3105 62.9576L49.8537 53.1798L56.768 50.402L55.5112 57.2272C55.5073 57.2455 55.5034 57.2646 55.5011 57.2829L54.4614 62.9264C54.326 63.5108 54.2077 64.3973 53.8357 64.8787L43.7339 78.0333H42.9013L48.8918 65.6783ZM13.2535 91.8188C13.2535 90.6767 14.2014 89.7475 15.3671 89.7475H27.5685C28.7342 89.7475 29.6828 90.6767 29.6828 91.8188V97.0686H13.2535V91.8188ZM32.6719 91.8188V83.0366C32.6719 81.8938 33.6205 80.9645 34.7862 80.9645H46.9876C48.1533 80.9645 49.1012 81.8938 49.1012 83.0366V97.0686H32.6727V91.8188H32.6719ZM87.9386 59.2917V97.0686H71.5101V88.2811C71.5101 87.4716 70.8409 86.8155 70.0152 86.8155C69.1888 86.8155 68.5195 87.4716 68.5195 88.2811V97.0686H52.091V73.6014C52.091 72.4593 53.0388 71.53 54.2046 71.53H66.4059C67.5717 71.53 68.5195 72.4593 68.5195 73.6014V80.9485C68.5195 81.758 69.1888 82.4141 70.0144 82.4141C70.8409 82.4141 71.5093 81.758 71.5093 80.9485V59.2917C71.5093 58.1488 72.458 57.2196 73.6237 57.2196H75.2704C75.275 57.2196 75.2805 57.2203 75.2859 57.2203C75.2906 57.2203 75.2961 57.2196 75.3007 57.2196H85.8243C86.99 57.2196 87.9386 58.1496 87.9386 59.2917ZM73.6237 54.2884C70.8097 54.2884 68.5203 56.5329 68.5203 59.2917V69.0497C67.9849 68.8101 67.4012 68.6583 66.7873 68.6141L68.0067 58.9461C68.2464 57.0617 67.2658 55.8127 66.318 54.6042C66.2176 54.4761 60.4068 47.7119 60.4068 47.7119L63.9717 37.1452L73.791 31.2965V54.2884H73.6237ZM76.7809 14.2036V5.15746H92.5961L89.19 8.09782C88.7262 8.49837 88.46 9.07515 88.46 9.68092C88.46 10.2867 88.7262 10.8635 89.19 11.264L92.5961 14.2044H76.7809V14.2036Z" fill="black"/>
</g>
<defs>
<clipPath id="clip0_563_316">
<rect width="102" height="100" fill="white"/>
</clipPath>
</defs>
</svg>
