<svg width="25" height="24" viewBox="0 0 25 24" fill="none" xmlns="http://www.w3.org/2000/svg">
<mask id="mask0_563_604" style="mask-type:alpha" maskUnits="userSpaceOnUse" x="0" y="0" width="25" height="24">
<rect x="0.875" width="24" height="24" fill="#D9D9D9"/>
</mask>
<g mask="url(#mask0_563_604)">
<path d="M7.07125 17.4845C7.92125 16.873 8.82317 16.3894 9.777 16.0337C10.7308 15.6779 11.7635 15.5 12.875 15.5C13.9865 15.5 15.0192 15.6779 15.973 16.0337C16.9268 16.3894 17.8288 16.873 18.6788 17.4845C19.3391 16.8012 19.8702 15.9942 20.272 15.0635C20.674 14.1327 20.875 13.1115 20.875 12C20.875 9.78333 20.0958 7.89583 18.5375 6.3375C16.9792 4.77917 15.0917 4 12.875 4C10.6583 4 8.77083 4.77917 7.2125 6.3375C5.65417 7.89583 4.875 9.78333 4.875 12C4.875 13.1115 5.076 14.1327 5.478 15.0635C5.87983 15.9942 6.41092 16.8012 7.07125 17.4845ZM12.8755 12.5C12.0328 12.5 11.3221 12.2108 10.7433 11.6323C10.1644 11.0538 9.875 10.3432 9.875 9.5005C9.875 8.65783 10.1642 7.94708 10.7427 7.36825C11.3212 6.78942 12.0318 6.5 12.8745 6.5C13.7172 6.5 14.4279 6.78925 15.0068 7.36775C15.5856 7.94625 15.875 8.65683 15.875 9.4995C15.875 10.3422 15.5857 11.0529 15.0072 11.6318C14.4288 12.2106 13.7182 12.5 12.8755 12.5ZM12.875 21C11.6198 21 10.4448 20.7663 9.35 20.299C8.25517 19.8317 7.30258 19.1929 6.49225 18.3828C5.68208 17.5724 5.04333 16.6198 4.576 15.525C4.10867 14.4302 3.875 13.2552 3.875 12C3.875 10.7448 4.10867 9.56983 4.576 8.475C5.04333 7.38017 5.68208 6.42758 6.49225 5.61725C7.30258 4.80708 8.25517 4.16833 9.35 3.701C10.4448 3.23367 11.6198 3 12.875 3C14.1302 3 15.3052 3.23367 16.4 3.701C17.4948 4.16833 18.4474 4.80708 19.2578 5.61725C20.0679 6.42758 20.7067 7.38017 21.174 8.475C21.6413 9.56983 21.875 10.7448 21.875 12C21.875 13.2552 21.6413 14.4302 21.174 15.525C20.7067 16.6198 20.0679 17.5724 19.2578 18.3828C18.4474 19.1929 17.4948 19.8317 16.4 20.299C15.3052 20.7663 14.1302 21 12.875 21ZM12.875 20C13.7968 20 14.7039 19.8388 15.5962 19.5163C16.4884 19.1939 17.2595 18.7526 17.9095 18.1923C17.2595 17.6704 16.5076 17.2579 15.6538 16.9548C14.7999 16.6516 13.8737 16.5 12.875 16.5C11.8763 16.5 10.9468 16.6484 10.0865 16.9453C9.22633 17.2421 8.47767 17.6578 7.8405 18.1923C8.4905 18.7526 9.26158 19.1939 10.1537 19.5163C11.0461 19.8388 11.9532 20 12.875 20ZM12.875 11.5C13.4365 11.5 13.9102 11.3071 14.2962 10.9212C14.6821 10.5352 14.875 10.0615 14.875 9.5C14.875 8.9385 14.6821 8.46475 14.2962 8.07875C13.9102 7.69292 13.4365 7.5 12.875 7.5C12.3135 7.5 11.8398 7.69292 11.4538 8.07875C11.0679 8.46475 10.875 8.9385 10.875 9.5C10.875 10.0615 11.0679 10.5352 11.4538 10.9212C11.8398 11.3071 12.3135 11.5 12.875 11.5Z" fill="#A2A2A2"/>
</g>
</svg>
