<svg width="25" height="24" viewBox="0 0 25 24" fill="none" xmlns="http://www.w3.org/2000/svg">
<mask id="mask0_563_599" style="mask-type:alpha" maskUnits="userSpaceOnUse" x="0" y="0" width="25" height="24">
<rect x="0.625" width="24" height="24" fill="#D9D9D9"/>
</mask>
<g mask="url(#mask0_563_599)">
<path d="M8.50951 10.2307L12.625 3.46149L16.7405 10.2307H8.50951ZM18.125 21.2307C17.0802 21.2307 16.1972 20.8702 15.476 20.149C14.7548 19.4278 14.3943 18.5448 14.3943 17.5C14.3943 16.4552 14.7548 15.5722 15.476 14.851C16.1972 14.1298 17.0802 13.7692 18.125 13.7692C19.1698 13.7692 20.0528 14.1298 20.774 14.851C21.4952 15.5722 21.8558 16.4552 21.8558 17.5C21.8558 18.5448 21.4952 19.4278 20.774 20.149C20.0528 20.8702 19.1698 21.2307 18.125 21.2307ZM4.39426 20.7307V14.2692H10.8558V20.7307H4.39426ZM18.1245 20.2307C18.889 20.2307 19.5353 19.9668 20.0635 19.439C20.5917 18.9112 20.8558 18.265 20.8558 17.5005C20.8558 16.736 20.5918 16.0897 20.064 15.5615C19.5362 15.0333 18.89 14.7692 18.1255 14.7692C17.361 14.7692 16.7147 15.0332 16.1865 15.561C15.6583 16.0888 15.3943 16.735 15.3943 17.4995C15.3943 18.264 15.6582 18.9103 16.186 19.4385C16.7138 19.9667 17.36 20.2307 18.1245 20.2307ZM5.39426 19.7307H9.85576V15.2692H5.39426V19.7307ZM10.252 9.23074H14.998L12.625 5.42699L10.252 9.23074Z" fill="#A2A2A2"/>
</g>
</svg>
