<svg width="20" height="20" viewBox="0 0 20 20" fill="none" xmlns="http://www.w3.org/2000/svg">
<path fill-rule="evenodd" clip-rule="evenodd" d="M6.25 1.25V2.5H13.75V1.25H15.4167V2.5H17.5C17.8452 2.5 18.125 2.77982 18.125 3.125V17.9375C18.125 18.3862 17.7612 18.75 17.3125 18.75H2.6875C2.23877 18.75 1.875 18.3862 1.875 17.9375V3.125C1.875 2.77982 2.15482 2.5 2.5 2.5H4.58333V1.25H6.25ZM16.5 17.125V7.91667H3.5V17.125H16.5Z" fill="#A91B78"/>
<path fill-rule="evenodd" clip-rule="evenodd" d="M5.83334 10.0209H7.50749V11.6875H5.83334V10.0209ZM9.16294 10.0209H10.8371V11.6875H9.16294V10.0209ZM12.4925 10.0209H14.1667V11.6875H12.4925V10.0209ZM5.83334 13.3542H7.50749V15.0209H5.83334V13.3542ZM9.16294 13.3542H10.8371V15.0209H9.16294V13.3542Z" fill="#A91B78"/>
</svg>
