<svg width="201" height="49" viewBox="0 0 201 49" fill="none" xmlns="http://www.w3.org/2000/svg">
<rect width="49" height="49" rx="10" fill="#AD3288"/>
<path d="M27.1497 9.03285C26.5056 9.74439 26.5606 10.8473 27.272 11.4913C27.7208 11.8975 28.3251 12.0254 28.8721 11.8862L30.65 14.5261C30.7061 14.6088 30.7795 14.6718 30.8571 14.7132L30.8579 14.7138L33.631 16.1955C33.5523 16.7189 33.713 17.2692 34.104 17.6705L33.3359 19.6018C33.2904 19.7161 33.2824 19.8419 33.3132 19.961L34.3652 24.0437C34.4185 24.2506 34.5811 24.4113 34.7881 24.4622C34.9954 24.5133 35.214 24.4465 35.3572 24.2882L37.4528 21.9733L39.6066 22.5741C39.8183 22.6331 40.0452 22.5675 40.1926 22.4046L42.2063 20.18C42.8678 20.4556 43.6601 20.303 44.1677 19.7422C44.7745 19.072 44.7607 18.0545 44.1624 17.4004L45.6438 14.6278C45.7247 14.4764 45.7336 14.2981 45.6718 14.1415L44.3577 10.8097C44.4108 10.7637 44.462 10.7144 44.5103 10.6611C45.1544 9.94959 45.0994 8.84673 44.3878 8.20263C43.8271 7.695 43.0234 7.62188 42.3927 7.96172L40.5242 6.27033C40.7999 5.60892 40.6472 4.81657 40.0865 4.30894C39.3749 3.66484 38.272 3.7198 37.628 4.43125C37.4487 4.62941 37.3238 4.85789 37.2519 5.09831L33.9451 5.24166C33.8498 5.00729 33.7018 4.79013 33.5019 4.60923C32.7904 3.96513 31.6875 4.02009 31.0435 4.73154C30.5359 5.29232 30.4628 6.09601 30.8026 6.7267L29.1112 8.59518C28.4496 8.31954 27.6573 8.47216 27.1497 9.03285ZM28.0507 10.631C27.8135 10.4163 27.7953 10.0487 28.01 9.81155C28.2247 9.57437 28.5922 9.55608 28.8294 9.77078C29.0666 9.98548 29.0849 10.3531 28.8702 10.5903C28.6555 10.8274 28.2879 10.8457 28.0507 10.631ZM43.2764 11.2314L44.2937 13.8107L40.5167 13.9777L39.6952 12.5207C39.9951 12.1772 40.136 11.747 40.1227 11.3221L41.9016 10.6292C41.9479 10.6829 41.9977 10.7346 42.0517 10.7834C42.3995 11.0983 42.8408 11.2457 43.2764 11.2314ZM43.1386 16.8541C42.581 16.7703 41.9929 16.9576 41.5869 17.406C41.4068 17.605 41.2814 17.8346 41.2098 18.0762L40.2719 18.1228L40.6935 15.1313L44.1404 14.9789L43.1386 16.8541ZM37.0707 16.7193C37.0866 16.6142 37.0927 16.508 37.0894 16.4022L39.4735 15.4734L39.1411 17.8321L37.0707 16.7193ZM31.8784 13.9435L32.97 11.4588L34.5285 11.6029L34.6899 14.8468C34.505 14.9224 34.331 15.031 34.1771 15.1719L31.8784 13.9435ZM29.9762 11.0195L31.7725 11.2996L31.0237 13.004L29.8359 11.2403C29.8888 11.1695 29.9355 11.0956 29.9762 11.0195ZM33.1608 7.43088L34.3757 8.53061L34.4703 10.4322L33.1578 10.3109L32.9982 7.50813C33.0534 7.48534 33.1076 7.45949 33.1608 7.43088ZM38.1895 7.18013L37.9574 9.68996C37.6353 9.77091 37.3329 9.94433 37.0938 10.2085C36.9721 10.3429 36.8755 10.4912 36.8035 10.6478L35.6375 10.54L35.539 8.5609L37.878 6.99444C37.9766 7.0683 38.081 7.1302 38.1895 7.18013ZM38.7736 10.9465C39.0108 11.1612 39.029 11.5288 38.8143 11.766C38.5996 12.0032 38.2321 12.0215 37.9949 11.8068C37.7577 11.5921 37.7394 11.2245 37.9541 10.9873C38.1688 10.7501 38.5364 10.7318 38.7736 10.9465ZM35.8489 14.7891L35.6957 11.7107L36.6976 11.8034C36.7786 12.1255 36.952 12.4279 37.2162 12.667C37.6291 13.0408 38.1738 13.1787 38.6841 13.0899L39.3523 14.2753L36.6689 15.3205C36.6224 15.2668 36.5728 15.2151 36.5188 15.1662C36.32 14.9862 36.0904 14.8609 35.8489 14.7891ZM41.4813 9.54767L39.7023 10.2406C39.656 10.1868 39.6063 10.1352 39.5523 10.0863C39.4179 9.96463 39.2696 9.86802 39.113 9.79602L39.345 7.28619C39.4833 7.25146 39.6178 7.1995 39.7453 7.13077L41.6138 8.82215C41.5173 9.05374 41.4735 9.30161 41.4813 9.54767ZM34.9967 7.52765L33.9395 6.57064C33.9628 6.51481 33.9832 6.45818 34.0003 6.40068L36.8647 6.27652L34.9967 7.52765ZM31.8393 7.56833L31.9869 10.1586L30.1485 9.87191C30.1155 9.69936 30.0563 9.53133 29.9713 9.37379L31.6627 7.50531C31.7207 7.52962 31.7795 7.55079 31.8393 7.56833ZM34.9207 16.0673C35.1354 15.8301 35.503 15.8118 35.7402 16.0265C35.9774 16.2412 35.9957 16.6088 35.781 16.846C35.5663 17.0832 35.1987 17.1015 34.9615 16.8868C34.7243 16.6721 34.706 16.3045 34.9207 16.0673ZM34.4841 19.8548L35.1483 18.1844C35.167 18.1866 35.1858 18.1886 35.2046 18.1902L36.5774 21.2113L35.22 22.7108L34.4841 19.8548ZM37.6795 20.832L36.3416 17.8874C36.4048 17.8437 36.4657 17.7955 36.5237 17.7426L39.3247 19.2484C39.4197 19.2995 39.5385 19.3233 39.6371 19.3165L41.2676 19.2353C41.2907 19.2918 41.3171 19.3472 41.3462 19.4014L39.573 21.3602L37.6795 20.832ZM43.3075 18.9635C43.0928 19.2007 42.7252 19.219 42.488 19.0043C42.2508 18.7896 42.2326 18.422 42.4473 18.1848C42.662 17.9477 43.0295 17.9294 43.2667 18.1441C43.5039 18.3588 43.5221 18.7265 43.3075 18.9635ZM43.6091 9.06297C43.8462 9.27767 43.8645 9.64526 43.6498 9.88244C43.4351 10.1196 43.0675 10.1379 42.8304 9.92321C42.5932 9.70851 42.5749 9.34092 42.7896 9.10373C43.0043 8.86655 43.3719 8.84827 43.6091 9.06297ZM39.3077 5.16928C39.5448 5.38398 39.5631 5.75157 39.3484 5.98875C39.1337 6.22593 38.7661 6.24422 38.529 6.02952C38.2918 5.81482 38.2735 5.44723 38.4882 5.21005C38.7029 4.97287 39.0705 4.95458 39.3077 5.16928ZM32.723 5.46948C32.9602 5.68418 32.9785 6.05177 32.7638 6.28895C32.5491 6.52613 32.1815 6.54442 31.9443 6.32972C31.7071 6.11502 31.6889 5.74743 31.9036 5.51025C32.1183 5.27307 32.4858 5.25478 32.723 5.46948Z" fill="white" stroke="#AD3288" stroke-width="0.8"/>
<mask id="mask0_563_871" style="mask-type:alpha" maskUnits="userSpaceOnUse" x="0" y="0" width="49" height="49">
<rect width="49" height="49" rx="10" fill="#FF32C1"/>
</mask>
<g mask="url(#mask0_563_871)">
<path fill-rule="evenodd" clip-rule="evenodd" d="M-1.63587 14.9219C-1.63587 14.6603 -1.63605 14.401 -1.63624 14.1436C-1.63702 13.0382 -1.63778 11.9679 -1.62383 10.8975C-1.62383 10.806 -1.4552 10.6902 -1.34164 10.6384C-1.27605 10.6085 -1.19312 10.6159 -1.11059 10.6233C-1.07402 10.6265 -1.03753 10.6298 -1.00266 10.6298C-0.0168746 10.6298 1.60017 10.6305 3.5518 10.6315C9.9053 10.6345 19.8048 10.6391 23.014 10.6246C25.4384 10.6142 27.7338 11.0806 29.8296 12.3432C36.9876 16.6526 37.8875 26.6342 31.5503 32.0785C28.1932 34.9629 24.2942 35.6849 20.0441 34.4827C19.9979 34.47 19.9539 34.4502 19.891 34.4218C19.8602 34.408 19.8249 34.3921 19.7826 34.3739L19.9657 33.6755L19.9679 33.667C20.2591 32.5565 20.55 31.447 20.8339 30.3599C21.0789 30.4022 21.3186 30.4488 21.5551 30.4946L21.5554 30.4947C22.0515 30.591 22.5334 30.6844 23.0191 30.7312C27.0094 31.1129 30.7123 28.2647 31.4126 24.299C32.1783 19.962 29.4356 15.9099 25.1304 15.0359C24.7415 14.9565 24.3355 14.9288 23.938 14.9288C20.0287 14.9229 7.58051 14.9234 1.35197 14.9236H1.3487L-1.06633 14.9237H-1.63587V14.9219ZM6.53681 44.6682L6.53774 44.6665C6.94818 44.6665 7.3515 44.6656 7.74969 44.6647H7.74972H7.75002C8.8158 44.6623 9.84476 44.66 10.8746 44.6751C10.97 44.6769 11.0546 44.6716 11.1312 44.657L51.7855 44.9104C52.3402 44.9139 52.7917 44.4652 52.7917 43.9104V41.4028C52.7917 40.8489 52.3416 40.4006 51.7878 40.4028L13.7695 40.5536C15.0062 38.4033 16.2445 36.254 17.4827 34.1046L17.4837 34.1028C19.0959 31.3043 20.7081 28.5057 22.3171 25.705C23.0553 24.4234 23.2601 23.0364 22.9331 21.5873C22.2552 18.5871 19.5744 16.6889 16.4617 17.0896C13.7705 17.4368 11.482 19.7461 11.4889 22.8361C11.4958 25.6756 12.3424 28.2354 14.1611 30.4324C14.4399 30.7709 14.4055 30.9903 14.211 31.3271C12.1402 34.9053 10.0767 38.4884 8.01328 42.0713L6.83793 44.112C6.77577 44.2192 6.7176 44.3287 6.64654 44.4625L6.64646 44.4627C6.61355 44.5247 6.57787 44.5919 6.53774 44.6665H6.53337L6.53681 44.6682ZM17.407 25.7751L17.4072 25.7748L17.4073 25.7747C17.8602 24.9856 18.2926 24.2323 18.6882 23.4596C18.9739 22.9017 18.8861 22.3006 18.4301 21.8239C17.9776 21.3507 17.4253 21.1641 16.7903 21.3956C16.1485 21.627 15.7855 22.0968 15.7528 22.7843C15.7373 23.1124 15.7562 23.4458 15.7958 23.7722C15.9214 24.8172 16.2087 25.8121 16.8058 26.8277V26.8294C17.0092 26.4682 17.2101 26.1183 17.407 25.7751Z" fill="white"/>
</g>
<path d="M201 20.3652L182.361 34.1382H201V38.0621H176.279V34.1382L195.036 20.3652H176.279V16.4805H201V20.3652Z" fill="white"/>
<path d="M172.13 26.2903H150.549V22.3664H172.13V26.2903Z" fill="white"/>
<path d="M141.287 38.0621C141.287 36.3356 140.947 34.6875 140.267 33.118C139.613 31.5222 138.724 30.0442 137.599 28.6839C136.474 27.3236 135.218 26.0941 133.832 24.9954C132.445 23.8967 131.02 22.9811 129.555 22.2487C128.116 21.5162 126.73 20.993 125.395 20.6791V38.0621H121.471V16.4805H123.59V16.5197C125.003 16.5982 126.494 16.9121 128.064 17.4615C129.659 17.9847 131.255 18.7171 132.851 19.6589C134.447 20.6006 135.964 21.6993 137.403 22.955C138.868 24.2106 140.162 25.6102 141.287 27.1536V16.4805H145.211V38.0621H141.287Z" fill="white"/>
<path d="M117.133 38.0621H94.6094V16.402H117.133V20.3652H98.5725V34.0989H117.133V38.0621ZM114.621 29.1155H100.417V25.1524H114.621V29.1155Z" fill="white"/>
<path d="M90.9567 20.4044C90.9567 22.2094 90.512 23.8575 89.6226 25.3486C88.7593 26.8135 87.5821 27.9907 86.091 28.8801C84.5999 29.7695 82.9519 30.2143 81.1469 30.2143H65.3727V26.3296H81.1469C82.2456 26.3296 83.2396 26.068 84.1291 25.5448C85.0185 24.9954 85.7248 24.276 86.248 23.3866C86.7712 22.471 87.0328 21.477 87.0328 20.4044C87.0328 19.3057 86.7712 18.3117 86.248 17.4222C85.7248 16.5328 85.0185 15.8265 84.1291 15.3033C83.2396 14.7801 82.2456 14.5185 81.1469 14.5185H63.1753V38.0621H59.2513V10.5946H81.1469C82.9519 10.5946 84.5999 11.0393 86.091 11.9287C87.5821 12.792 88.7593 13.9692 89.6226 15.4603C90.512 16.9514 90.9567 18.5994 90.9567 20.4044Z" fill="white"/>
</svg>
