<svg width="14" height="13" viewBox="0 0 14 13" fill="none" xmlns="http://www.w3.org/2000/svg">
<path d="M9.71363 1.27172L9.71368 1.27165C9.80934 1.09941 9.938 0.947717 10.0923 0.825215C10.2466 0.702714 10.4235 0.61181 10.613 0.557694C10.8024 0.503579 11.0006 0.487313 11.1964 0.509825C11.3921 0.532333 11.5814 0.593168 11.7536 0.688855C11.9258 0.784583 12.0774 0.913287 12.1998 1.06762C12.3222 1.22195 12.4131 1.39888 12.4671 1.58831C12.5212 1.77775 12.5374 1.97597 12.5148 2.17166C12.4922 2.36736 12.4313 2.55669 12.3356 2.72886L12.3355 2.72904L7.33556 11.7289C7.33554 11.729 7.33552 11.729 7.3355 11.729C7.22271 11.9319 7.06438 12.1058 6.87297 12.2371C6.6858 12.3655 6.472 12.4497 6.24769 12.4835L6.00784 12.5008C5.61951 12.4964 5.244 12.3409 4.9646 12.0608L4.96413 12.0603L0.96413 8.06031L0.964183 8.06026L0.957933 8.05422C0.814667 7.91585 0.700394 7.75033 0.62178 7.56732C0.543167 7.38432 0.501787 7.18749 0.500057 6.98832C0.498326 6.78915 0.536278 6.59163 0.6117 6.40729C0.687121 6.22294 0.7985 6.05547 0.93934 5.91463C1.08018 5.77379 1.24766 5.66241 1.432 5.58699C1.61635 5.51156 1.81387 5.47361 2.01303 5.47534C2.2122 5.47707 2.40903 5.51845 2.59204 5.59707C2.77504 5.67568 2.94056 5.78995 3.07893 5.93322L3.07888 5.93327L3.08502 5.93941L5.21002 8.06441L5.6787 8.53309L6.00063 7.95372L9.71363 1.27172Z" fill="white" stroke="#A91B78"/>
</svg>
